<?xml version="1.0" encoding="UTF-8"?>
<!DOCTYPE svg PUBLIC "-//W3C//DTD SVG 1.1//EN" "http://www.w3.org/Graphics/SVG/1.1/DTD/svg11.dtd">
<svg xmlns="http://www.w3.org/2000/svg" version="1.1" width="698px" height="779px" style="shape-rendering:geometricPrecision; text-rendering:geometricPrecision; image-rendering:optimizeQuality; fill-rule:evenodd; clip-rule:evenodd" xmlns:xlink="http://www.w3.org/1999/xlink">
<g><path style="opacity:1" fill="#5d9cce" d="M 175.5,-0.5 C 175.833,-0.5 176.167,-0.5 176.5,-0.5C 176.666,9.17241 176.5,18.8391 176,28.5C 100.446,66.226 41.6122,121.559 -0.5,194.5C -0.5,177.833 -0.5,161.167 -0.5,144.5C 45.3766,80.5724 104.043,32.2391 175.5,-0.5 Z"/></g>
<g><path style="opacity:1" fill="#5d9cce" d="M 519.5,-0.5 C 520.167,-0.5 520.833,-0.5 521.5,-0.5C 592.957,32.2391 651.623,80.5724 697.5,144.5C 697.5,161.167 697.5,177.833 697.5,194.5C 655.359,121.365 596.359,66.0312 520.5,28.5C 519.502,18.8563 519.168,9.18959 519.5,-0.5 Z"/></g>
<g><path style="opacity:1" fill="#5d9cce" d="M -0.5,362.5 C -0.5,324.5 -0.5,286.5 -0.5,248.5C 35.0725,163.254 93.7391,98.9209 175.5,55.5C 176.833,65.5 176.833,75.5 175.5,85.5C 84.0815,140.145 27.2482,219.812 5,324.5C 2.82377,337.266 0.990438,349.933 -0.5,362.5 Z"/></g>
<g><path style="opacity:1" fill="#5d9cce" d="M 697.5,248.5 C 697.5,286.5 697.5,324.5 697.5,362.5C 686.728,255.76 638.728,170.26 553.5,106C 542.758,98.2098 531.591,91.0431 520,84.5C 519.5,74.8391 519.334,65.1724 519.5,55.5C 524.032,56.7632 528.365,58.5965 532.5,61C 608.304,105.297 663.304,167.797 697.5,248.5 Z"/></g>
<g><path style="opacity:1" fill="#5d9cce" d="M 175.5,112.5 C 176.659,122.992 176.825,133.659 176,144.5C 86.3954,211.397 44.3954,301.064 50,413.5C 59.9993,505.536 101.999,578.87 176,633.5C 176.667,644.167 176.667,654.833 176,665.5C 77.5443,599.966 26.3776,507.633 22.5,388.5C 24.9899,286.702 64.6565,202.868 141.5,137C 152.456,128.195 163.79,120.029 175.5,112.5 Z"/></g>
<g><path style="opacity:1" fill="#5d9cce" d="M 519.5,112.5 C 593.262,158.154 641.428,223.154 664,307.5C 687.049,405.898 670.049,496.564 613,579.5C 588.014,612.82 558.181,640.987 523.5,664C 522.552,664.483 521.552,664.649 520.5,664.5C 520.334,654.161 520.5,643.828 521,633.5C 603.125,573.094 645.292,491.594 647.5,389C 645.199,285.886 602.699,204.053 520,143.5C 519.5,133.172 519.334,122.839 519.5,112.5 Z"/></g>
<g><path style="opacity:1" fill="#5d9cce" d="M 175.5,173.5 C 176.66,185.326 176.826,197.326 176,209.5C 115.486,269.705 90.8189,342.372 102,427.5C 111.177,482.862 135.843,529.862 176,568.5C 176.833,580.181 176.666,591.848 175.5,603.5C 101.711,541.209 67.8772,461.542 74,364.5C 82.1627,286.824 115.996,223.158 175.5,173.5 Z"/></g>
<g><path style="opacity:1" fill="#5d9cce" d="M 519.5,173.5 C 570.678,213.941 603.511,266.274 618,330.5C 635.543,423.687 613.21,505.687 551,576.5C 541.916,586.422 532.083,595.422 521.5,603.5C 520.334,591.848 520.167,580.181 521,568.5C 581.417,508.258 606.084,435.591 595,350.5C 585.735,294.626 560.735,247.293 520,208.5C 519.5,196.838 519.333,185.171 519.5,173.5 Z"/></g>
<g><path style="opacity:1" fill="#5d9cce" d="M 175.5,243.5 C 176.661,258.661 176.828,273.994 176,289.5C 149.688,336.018 142.688,385.351 155,437.5C 159.662,455.491 166.662,472.491 176,488.5C 176.667,503.833 176.667,519.167 176,534.5C 131.08,479.162 114.747,416.162 127,345.5C 134.899,307.377 151.065,273.377 175.5,243.5 Z"/></g>
<g><path style="opacity:1" fill="#5d9cce" d="M 519.5,243.5 C 521.371,243.859 522.871,244.859 524,246.5C 574.231,312.886 586.565,385.886 561,465.5C 551.687,490.59 538.52,513.256 521.5,533.5C 520.334,518.511 520.167,503.511 521,488.5C 547.991,440.574 554.658,389.907 541,336.5C 535.942,319.323 528.942,302.99 520,287.5C 519.5,272.837 519.333,258.17 519.5,243.5 Z"/></g>
<g><path style="opacity:1" fill="#f3f3f3" d="M 385.5,335.5 C 381.806,339.551 379.14,344.217 377.5,349.5C 371.349,357.788 365.683,366.455 360.5,375.5C 356.276,380.925 352.276,386.591 348.5,392.5C 344.724,386.591 340.724,380.925 336.5,375.5C 331.317,366.455 325.651,357.788 319.5,349.5C 317.511,344.191 314.511,339.524 310.5,335.5C 301.325,312.348 306.658,293.514 326.5,279C 350.111,267.945 369.611,272.778 385,293.5C 392.123,307.469 392.289,321.469 385.5,335.5 Z"/></g>
<g><path style="opacity:1" fill="#030303" d="M 343.5,278.5 C 368.099,278.608 381.766,290.774 384.5,315C 384.711,322.369 382.878,329.202 379,335.5C 368.636,351.032 358.47,366.699 348.5,382.5C 335.399,363.969 323.566,344.635 313,324.5C 309.944,300.255 320.111,284.922 343.5,278.5 Z"/></g>
<g><path style="opacity:1" fill="#ebebeb" d="M 343.5,300.5 C 360.025,300.254 365.858,307.921 361,323.5C 352.586,332.757 344.252,332.757 336,323.5C 331.094,313.331 333.594,305.664 343.5,300.5 Z"/></g>
<g><path style="opacity:1" fill="#080808" d="M 345.5,305.5 C 354.991,305.493 358.824,310.159 357,319.5C 354.103,324.155 349.937,325.655 344.5,324C 336.194,317.384 336.527,311.217 345.5,305.5 Z"/></g>
<g><path style="opacity:1" fill="#5d9cce" d="M 181.5,335.5 C 190.5,335.5 199.5,335.5 208.5,335.5C 196.19,371.617 196.524,407.617 209.5,443.5C 200.19,444.498 190.857,444.832 181.5,444.5C 170.188,408.035 170.188,371.701 181.5,335.5 Z"/></g>
<g><path style="opacity:1" fill="#5d9cce" d="M 234.5,335.5 C 244.506,335.334 254.506,335.5 264.5,336C 247.788,364.441 244.955,394.275 256,425.5C 258.912,431.658 262.079,437.658 265.5,443.5C 255.5,444.833 245.5,444.833 235.5,443.5C 222.805,415.521 219.972,386.521 227,356.5C 229.212,349.363 231.712,342.363 234.5,335.5 Z"/></g>
<g><path style="opacity:1" fill="#5d9cce" d="M 310.5,335.5 C 314.511,339.524 317.511,344.191 319.5,349.5C 302.147,363.052 295.98,380.719 301,402.5C 312.352,431.096 333.185,442.262 363.5,436C 393.094,422.928 403.26,400.761 394,369.5C 390.131,361.393 384.631,354.727 377.5,349.5C 379.14,344.217 381.806,339.551 385.5,335.5C 391.176,335.334 396.843,335.501 402.5,336C 423.598,359.487 429.098,386.321 419,416.5C 414.822,427.01 408.655,436.177 400.5,444C 365.833,444.667 331.167,444.667 296.5,444C 272.401,418.497 266.901,389.33 280,356.5C 283.727,348.877 288.561,342.044 294.5,336C 299.823,335.501 305.156,335.334 310.5,335.5 Z M 319.5,349.5 C 325.651,357.788 331.317,366.455 336.5,375.5C 330.494,381.814 328.994,389.147 332,397.5C 339.076,408.109 348.243,410.276 359.5,404C 368.424,394.784 368.757,385.284 360.5,375.5C 365.683,366.455 371.349,357.788 377.5,349.5C 384.631,354.727 390.131,361.393 394,369.5C 403.26,400.761 393.094,422.928 363.5,436C 333.185,442.262 312.352,431.096 301,402.5C 295.98,380.719 302.147,363.052 319.5,349.5 Z"/></g>
<g><path style="opacity:1" fill="#5d9cce" d="M 432.5,336.5 C 442.341,335.177 452.341,335.177 462.5,336.5C 472.494,358.47 475.994,381.47 473,405.5C 471.282,418.819 467.449,431.485 461.5,443.5C 451.5,444.833 441.5,444.833 431.5,443.5C 449.966,412.797 452.466,380.797 439,347.5C 437.311,343.44 435.144,339.773 432.5,336.5 Z"/></g>
<g><path style="opacity:1" fill="#5d9cce" d="M 488.5,335.5 C 497.506,335.334 506.506,335.5 515.5,336C 519.27,346.846 521.77,358.013 523,369.5C 525.54,395.037 523.04,420.037 515.5,444.5C 506.143,444.832 496.81,444.498 487.5,443.5C 500.476,407.617 500.81,371.617 488.5,335.5 Z"/></g>
<g><path style="opacity:1" fill="#5d9cce" d="M 336.5,375.5 C 340.724,380.925 344.724,386.591 348.5,392.5C 352.276,386.591 356.276,380.925 360.5,375.5C 368.757,385.284 368.424,394.784 359.5,404C 348.243,410.276 339.076,408.109 332,397.5C 328.994,389.147 330.494,381.814 336.5,375.5 Z"/></g>
<g><path style="opacity:1" fill="#5d9cce" d="M -0.5,414.5 C 10.5747,522.85 59.5747,609.35 146.5,674C 156.067,680.562 165.9,686.729 176,692.5C 176.832,702.517 176.666,712.517 175.5,722.5C 93.7391,679.079 35.0725,614.746 -0.5,529.5C -0.5,491.167 -0.5,452.833 -0.5,414.5 Z"/></g>
<g><path style="opacity:1" fill="#5d9cce" d="M 697.5,414.5 C 697.5,452.833 697.5,491.167 697.5,529.5C 661.928,614.746 603.261,679.079 521.5,722.5C 520.334,712.517 520.168,702.517 521,692.5C 612.7,638.064 669.7,558.398 692,453.5C 694.246,440.409 696.08,427.409 697.5,414.5 Z"/></g>
<g><path style="opacity:1" fill="#5d9cce" d="M -0.5,583.5 C 41.6659,656.498 100.499,711.831 176,749.5C 176.5,759.161 176.666,768.828 176.5,778.5C 176.167,778.5 175.833,778.5 175.5,778.5C 104.208,745.546 45.5417,697.213 -0.5,633.5C -0.5,616.833 -0.5,600.167 -0.5,583.5 Z"/></g>
<g><path style="opacity:1" fill="#5d9cce" d="M 697.5,583.5 C 697.5,600.167 697.5,616.833 697.5,633.5C 653.872,694.627 598.205,741.46 530.5,774C 527.242,775.467 523.908,776.633 520.5,777.5C 520.334,768.161 520.5,758.827 521,749.5C 596.501,711.831 655.334,656.498 697.5,583.5 Z"/></g>
</svg>
